<?xml version="1.0" encoding="UTF-8" standalone="no"?>
<svg
   viewBox="0 0 448 512"
   version="1.1"
   id="svg1"
   sodipodi:docname="trash-solid.svg"
   inkscape:version="1.4.1 (93de688d07, 2025-03-30)"
   xmlns:inkscape="http://www.inkscape.org/namespaces/inkscape"
   xmlns:sodipodi="http://sodipodi.sourceforge.net/DTD/sodipodi-0.dtd"
   xmlns="http://www.w3.org/2000/svg"
   xmlns:svg="http://www.w3.org/2000/svg">
  <defs
     id="defs1" />
  <sodipodi:namedview
     id="namedview1"
     pagecolor="#ffffff"
     bordercolor="#000000"
     borderopacity="0.25"
     inkscape:showpageshadow="2"
     inkscape:pageopacity="0.0"
     inkscape:pagecheckerboard="0"
     inkscape:deskcolor="#d1d1d1"
     inkscape:zoom="1.0878906"
     inkscape:cx="224.28725"
     inkscape:cy="225.66607"
     inkscape:window-width="1332"
     inkscape:window-height="704"
     inkscape:window-x="0"
     inkscape:window-y="0"
     inkscape:window-maximized="1"
     inkscape:current-layer="svg1" />
  <!--!Font Awesome Free 6.7.2 by @fontawesome - https://fontawesome.com License - https://fontawesome.com/license/free Copyright 2025 Fonticons, Inc.-->
  <path
     d="M135.2 17.7L128 32 32 32C14.3 32 0 46.3 0 64S14.3 96 32 96l384 0c17.7 0 32-14.3 32-32s-14.3-32-32-32l-96 0-7.2-14.3C307.4 6.8 296.3 0 284.2 0L163.8 0c-12.1 0-23.2 6.8-28.6 17.7zM416 128L32 128 53.2 467c1.6 25.3 22.6 45 47.9 45l245.8 0c25.3 0 46.3-19.7 47.9-45L416 128z"
     id="path1"
     style="fill:#ff0000" />
</svg>
