<?xml version="1.0" encoding="UTF-8" standalone="no"?>
<svg
   viewBox="0 0 448 387"
   version="1.1"
   id="svg1"
   sodipodi:docname="bars-solid.svg"
   width="448"
   height="387"
   inkscape:version="1.4.1 (93de688d07, 2025-03-30)"
   xmlns:inkscape="http://www.inkscape.org/namespaces/inkscape"
   xmlns:sodipodi="http://sodipodi.sourceforge.net/DTD/sodipodi-0.dtd"
   xmlns="http://www.w3.org/2000/svg"
   xmlns:svg="http://www.w3.org/2000/svg">
  <defs
     id="defs1" />
  <sodipodi:namedview
     id="namedview1"
     pagecolor="#ffffff"
     bordercolor="#000000"
     borderopacity="0.25"
     inkscape:showpageshadow="2"
     inkscape:pageopacity="0.0"
     inkscape:pagecheckerboard="0"
     inkscape:deskcolor="#d1d1d1"
     inkscape:zoom="1.0878906"
     inkscape:cx="281.27828"
     inkscape:cy="217.39318"
     inkscape:window-width="1076"
     inkscape:window-height="704"
     inkscape:window-x="0"
     inkscape:window-y="0"
     inkscape:window-maximized="1"
     inkscape:current-layer="svg1" />
  <!--!Font Awesome Free 6.7.2 by @fontawesome - https://fontawesome.com License - https://fontawesome.com/license/free Copyright 2025 Fonticons, Inc.-->
  <path
     d="M 0,34 C 0,16.3 14.3,2 32,2 h 384 c 17.7,0 32,14.3 32,32 0,17.7 -14.3,32 -32,32 H 32 C 14.3,66 0,51.7 0,34 Z m 0,160 c 0,-17.7 14.3,-32 32,-32 h 384 c 17.7,0 32,14.3 32,32 0,17.7 -14.3,32 -32,32 H 32 C 14.3,226 0,211.7 0,194 Z m 448,160 c 0,17.7 -14.3,32 -32,32 H 32 C 14.3,386 0,371.7 0,354 0,336.3 14.3,322 32,322 h 384 c 17.7,0 32,14.3 32,32 z"
     id="path1"
     style="fill:#ffffff" />
</svg>
